<svg xmlns="http://www.w3.org/2000/svg" viewBox="0 0 100 100">
  <defs>
    <radialGradient id="dualRingDial" cx="50%" cy="38%" r="72%">
      <stop offset="0%" stop-color="#fffdf7" />
      <stop offset="100%" stop-color="#efe1c8" />
    </radialGradient>
  </defs>

  <circle cx="50" cy="50" r="48" fill="url(#dualRingDial)" stroke="#153243" stroke-width="1.6" />
  <circle cx="50" cy="50" r="42" fill="none" stroke="#c6b28d" stroke-width="0.5" />
  <circle cx="50" cy="50" r="33" fill="none" stroke="#ccb892" stroke-width="0.7" />

  <g fill="#8c7a58" opacity="0.82">
    <circle cx="50" cy="8" r="0.72" />
    <circle cx="54.39" cy="8.23" r="0.72" />
    <circle cx="58.73" cy="8.92" r="0.72" />
    <circle cx="62.98" cy="10.06" r="0.72" />
    <circle cx="67.08" cy="11.63" r="0.72" />
    <circle cx="71" cy="13.63" r="0.72" />
    <circle cx="74.69" cy="16.02" r="0.72" />
    <circle cx="78.1" cy="18.79" r="0.72" />
    <circle cx="81.21" cy="21.9" r="0.72" />
    <circle cx="83.98" cy="25.31" r="0.72" />
    <circle cx="86.37" cy="29" r="0.72" />
    <circle cx="88.37" cy="32.92" r="0.72" />
    <circle cx="89.94" cy="37.02" r="0.72" />
    <circle cx="91.08" cy="41.27" r="0.72" />
    <circle cx="91.77" cy="45.61" r="0.72" />
    <circle cx="92" cy="50" r="0.72" />
    <circle cx="91.77" cy="54.39" r="0.72" />
    <circle cx="91.08" cy="58.73" r="0.72" />
    <circle cx="89.94" cy="62.98" r="0.72" />
    <circle cx="88.37" cy="67.08" r="0.72" />
    <circle cx="86.37" cy="71" r="0.72" />
    <circle cx="83.98" cy="74.69" r="0.72" />
    <circle cx="81.21" cy="78.1" r="0.72" />
    <circle cx="78.1" cy="81.21" r="0.72" />
    <circle cx="74.69" cy="83.98" r="0.72" />
    <circle cx="71" cy="86.37" r="0.72" />
    <circle cx="67.08" cy="88.37" r="0.72" />
    <circle cx="62.98" cy="89.94" r="0.72" />
    <circle cx="58.73" cy="91.08" r="0.72" />
    <circle cx="54.39" cy="91.77" r="0.72" />
    <circle cx="50" cy="92" r="0.72" />
    <circle cx="45.61" cy="91.77" r="0.72" />
    <circle cx="41.27" cy="91.08" r="0.72" />
    <circle cx="37.02" cy="89.94" r="0.72" />
    <circle cx="32.92" cy="88.37" r="0.72" />
    <circle cx="29" cy="86.37" r="0.72" />
    <circle cx="25.31" cy="83.98" r="0.72" />
    <circle cx="21.9" cy="81.21" r="0.72" />
    <circle cx="18.79" cy="78.1" r="0.72" />
    <circle cx="16.02" cy="74.69" r="0.72" />
    <circle cx="13.63" cy="71" r="0.72" />
    <circle cx="11.63" cy="67.08" r="0.72" />
    <circle cx="10.06" cy="62.98" r="0.72" />
    <circle cx="8.92" cy="58.73" r="0.72" />
    <circle cx="8.23" cy="54.39" r="0.72" />
    <circle cx="8" cy="50" r="0.72" />
    <circle cx="8.23" cy="45.61" r="0.72" />
    <circle cx="8.92" cy="41.27" r="0.72" />
    <circle cx="10.06" cy="37.02" r="0.72" />
    <circle cx="11.63" cy="32.92" r="0.72" />
    <circle cx="13.63" cy="29" r="0.72" />
    <circle cx="16.02" cy="25.31" r="0.72" />
    <circle cx="18.79" cy="21.9" r="0.72" />
    <circle cx="21.9" cy="18.79" r="0.72" />
    <circle cx="25.31" cy="16.02" r="0.72" />
    <circle cx="29" cy="13.63" r="0.72" />
    <circle cx="32.92" cy="11.63" r="0.72" />
    <circle cx="37.02" cy="10.06" r="0.72" />
    <circle cx="41.27" cy="8.92" r="0.72" />
    <circle cx="45.61" cy="8.23" r="0.72" />
  </g>

  <g fill="#153243" font-family="Verdana, Arial, sans-serif" font-size="3" font-weight="600" text-anchor="middle" dominant-baseline="middle">
    <text x="50" y="5">00</text>
    <text x="72.5" y="11.03">5</text>
    <text x="88.97" y="27.5">10</text>
    <text x="95" y="50">15</text>
    <text x="88.97" y="72.5">20</text>
    <text x="72.5" y="88.97">25</text>
    <text x="50" y="95">30</text>
    <text x="27.5" y="88.97">35</text>
    <text x="11.03" y="72.5">40</text>
    <text x="5" y="50">45</text>
    <text x="11.03" y="27.5">50</text>
    <text x="27.5" y="11.03">55</text>
  </g>

  <g fill="#153243" opacity="0.9">
    <circle cx="50" cy="17" r="0.95" />
    <circle cx="66.5" cy="21.42" r="0.95" />
    <circle cx="78.58" cy="33.5" r="0.95" />
    <circle cx="83" cy="50" r="0.95" />
    <circle cx="78.58" cy="66.5" r="0.95" />
    <circle cx="66.5" cy="78.58" r="0.95" />
    <circle cx="50" cy="83" r="0.95" />
    <circle cx="33.5" cy="78.58" r="0.95" />
    <circle cx="21.42" cy="66.5" r="0.95" />
    <circle cx="17" cy="50" r="0.95" />
    <circle cx="21.42" cy="33.5" r="0.95" />
    <circle cx="33.5" cy="21.42" r="0.95" />
  </g>

  <g fill="#153243" font-family="Georgia, serif" font-size="6.1" text-anchor="middle" dominant-baseline="middle">
    <text x="50" y="13">12</text>
    <text x="68.5" y="17.96">1</text>
    <text x="82.04" y="31.5">2</text>
    <text x="87" y="50">3</text>
    <text x="82.04" y="68.5">4</text>
    <text x="68.5" y="82.04">5</text>
    <text x="50" y="87">6</text>
    <text x="31.5" y="82.04">7</text>
    <text x="17.96" y="68.5">8</text>
    <text x="13" y="50">9</text>
    <text x="17.96" y="31.5">10</text>
    <text x="31.5" y="17.96">11</text>
  </g>
</svg>