<svg xmlns="http://www.w3.org/2000/svg" viewBox="0 0 100 100">
  <defs>
    <radialGradient id="dial" cx="50%" cy="40%" r="70%">
      <stop offset="0%" stop-color="#fffdfa" />
      <stop offset="100%" stop-color="#f1e6d2" />
    </radialGradient>
  </defs>
  <circle cx="50" cy="50" r="48" fill="url(#dial)" stroke="#153243" stroke-width="1.8" />
  <circle cx="50" cy="50" r="43.5" fill="none" stroke="#cdbb98" stroke-width="0.7" />
  <g stroke="#153243" stroke-linecap="round">
    <line x1="50" y1="8.5" x2="50" y2="14" stroke-width="1.6" />
    <line x1="50" y1="8.5" x2="50" y2="12.2" stroke-width="0.7" transform="rotate(30 50 50)" />
    <line x1="50" y1="8.5" x2="50" y2="12.2" stroke-width="0.7" transform="rotate(60 50 50)" />
    <line x1="50" y1="8.5" x2="50" y2="14" stroke-width="1.6" transform="rotate(90 50 50)" />
    <line x1="50" y1="8.5" x2="50" y2="12.2" stroke-width="0.7" transform="rotate(120 50 50)" />
    <line x1="50" y1="8.5" x2="50" y2="12.2" stroke-width="0.7" transform="rotate(150 50 50)" />
    <line x1="50" y1="8.5" x2="50" y2="14" stroke-width="1.6" transform="rotate(180 50 50)" />
    <line x1="50" y1="8.5" x2="50" y2="12.2" stroke-width="0.7" transform="rotate(210 50 50)" />
    <line x1="50" y1="8.5" x2="50" y2="12.2" stroke-width="0.7" transform="rotate(240 50 50)" />
    <line x1="50" y1="8.5" x2="50" y2="14" stroke-width="1.6" transform="rotate(270 50 50)" />
    <line x1="50" y1="8.5" x2="50" y2="12.2" stroke-width="0.7" transform="rotate(300 50 50)" />
    <line x1="50" y1="8.5" x2="50" y2="12.2" stroke-width="0.7" transform="rotate(330 50 50)" />
  </g>
</svg>
